<?xml version="1.0" encoding="UTF-8" standalone="no"?><svg xmlns="http://www.w3.org/2000/svg" xmlns:xlink="http://www.w3.org/1999/xlink" contentScriptType="application/ecmascript" contentStyleType="text/css" height="658px" preserveAspectRatio="none" style="width:1619px;height:658px;" version="1.1" viewBox="0 0 1619 658" width="1619px" zoomAndPan="magnify"><defs/><g><ellipse cx="1033.75" cy="18" fill="#185A66" rx="10" ry="10" style="stroke: none; stroke-width: 1.0;"/><rect fill="#F2F8F7" height="95.6641" rx="12.5" ry="12.5" style="stroke: #185A66; stroke-width: 1.5;" width="289" x="889.25" y="120"/><line style="stroke: #185A66; stroke-width: 1.5;" x1="889.25" x2="1178.25" y1="145.1328" y2="145.1328"/><text fill="#101817" font-family="Helvetica" font-size="13" lengthAdjust="spacingAndGlyphs" textLength="72" x="997.75" y="137.0669">PENDIENTE</text><text fill="#000000" font-family="Helvetica" font-size="13" lengthAdjust="spacingAndGlyphs" textLength="226" x="894.25" y="162.1997">La toma existe y espera respuesta.</text><text fill="#000000" font-family="Helvetica" font-size="13" lengthAdjust="spacingAndGlyphs" textLength="222" x="894.25" y="177.3325">Es la clave del proyecto: el registro</text><text fill="#000000" font-family="Helvetica" font-size="13" lengthAdjust="spacingAndGlyphs" textLength="269" x="894.25" y="192.4653">se crea aunque el paciente no haga nada,</text><text fill="#000000" font-family="Helvetica" font-size="13" lengthAdjust="spacingAndGlyphs" textLength="215" x="894.25" y="207.5981">asi el olvido queda documentado.</text><rect fill="#FEF6E9" height="65.3984" rx="12.5" ry="12.5" style="stroke: #185A66; stroke-width: 1.5;" width="162" x="523.75" y="297.5"/><line style="stroke: #185A66; stroke-width: 1.5;" x1="523.75" x2="685.75" y1="322.6328" y2="322.6328"/><text fill="#101817" font-family="Helvetica" font-size="13" lengthAdjust="spacingAndGlyphs" textLength="78" x="565.75" y="314.5669">POSPUESTA</text><text fill="#000000" font-family="Helvetica" font-size="13" lengthAdjust="spacingAndGlyphs" textLength="109" x="528.75" y="339.6997">Se corrio la hora.</text><text fill="#000000" font-family="Helvetica" font-size="13" lengthAdjust="spacingAndGlyphs" textLength="142" x="528.75" y="354.8325">vecesPospuesta &lt;= 3</text><rect fill="#E8F6EC" height="65.3984" rx="12.5" ry="12.5" style="stroke: #185A66; stroke-width: 1.5;" width="190" x="319.75" y="459"/><line style="stroke: #185A66; stroke-width: 1.5;" x1="319.75" x2="509.75" y1="484.1328" y2="484.1328"/><text fill="#101817" font-family="Helvetica" font-size="13" lengthAdjust="spacingAndGlyphs" textLength="56" x="386.75" y="476.0669">TOMADA</text><text fill="#000000" font-family="Helvetica" font-size="13" lengthAdjust="spacingAndGlyphs" textLength="137" x="324.75" y="501.1997">resueltaEn registrado</text><text fill="#000000" font-family="Helvetica" font-size="13" lengthAdjust="spacingAndGlyphs" textLength="170" x="324.75" y="516.3325">Se descuenta el inventario</text><rect fill="#FBEAE9" height="65.3984" rx="12.5" ry="12.5" style="stroke: #185A66; stroke-width: 1.5;" width="195" x="596.25" y="459"/><line style="stroke: #185A66; stroke-width: 1.5;" x1="596.25" x2="791.25" y1="484.1328" y2="484.1328"/><text fill="#101817" font-family="Helvetica" font-size="13" lengthAdjust="spacingAndGlyphs" textLength="53" x="667.25" y="476.0669">OMITIDA</text><text fill="#000000" font-family="Helvetica" font-size="13" lengthAdjust="spacingAndGlyphs" textLength="137" x="601.25" y="501.1997">resueltaEn registrado</text><text fill="#000000" font-family="Helvetica" font-size="13" lengthAdjust="spacingAndGlyphs" textLength="175" x="601.25" y="516.3325">No se descuenta inventario</text><ellipse cx="485.75" cy="615.5" fill="none" rx="10" ry="10" style="stroke: #101817; stroke-width: 1.0;"/><ellipse cx="486.25" cy="616" fill="#101817" rx="6" ry="6" style="stroke: none; stroke-width: 1.0;"/><path d="M892.25,293 L892.25,326 L685.75,330 L892.25,334 L892.25,367.0234 A0,0 0 0 0 892.25,367.0234 L1107.25,367.0234 A0,0 0 0 0 1107.25,367.0234 L1107.25,303 L1097.25,293 L892.25,293 A0,0 0 0 0 892.25,293 " fill="#FBF1E6" style="stroke: #A0530A; stroke-width: 1.0;"/><path d="M1097.25,293 L1097.25,303 L1107.25,303 L1097.25,293 " fill="#FBF1E6" style="stroke: #A0530A; stroke-width: 1.0;"/><text fill="#000000" font-family="Helvetica" font-size="11" lengthAdjust="spacingAndGlyphs" textLength="187" x="898.25" y="308.2104">Al cuarto intento de posponer se</text><text fill="#000000" font-family="Helvetica" font-size="11" lengthAdjust="spacingAndGlyphs" textLength="172" x="898.25" y="321.0151">lanza ErrorDeReglaDeNegocio.</text><text fill="#000000" font-family="Helvetica" font-size="11" lengthAdjust="spacingAndGlyphs" textLength="164" x="898.25" y="333.8198">El limite evita que aplazar se</text><text fill="#000000" font-family="Helvetica" font-size="11" lengthAdjust="spacingAndGlyphs" textLength="194" x="898.25" y="346.6245">convierta en una forma silenciosa</text><text fill="#000000" font-family="Helvetica" font-size="11" lengthAdjust="spacingAndGlyphs" textLength="189" x="898.25" y="359.4292">de nunca tomar el medicamento.</text><path d="M537.75,585 L537.75,646.2188 A0,0 0 0 0 537.75,646.2188 L849.75,646.2188 A0,0 0 0 0 849.75,646.2188 L849.75,595 L839.75,585 L697.75,585 L693.75,524.24 L689.75,585 L537.75,585 A0,0 0 0 0 537.75,585 " fill="#FBF1E6" style="stroke: #A0530A; stroke-width: 1.0;"/><path d="M839.75,585 L839.75,595 L849.75,595 L839.75,585 " fill="#FBF1E6" style="stroke: #A0530A; stroke-width: 1.0;"/><text fill="#000000" font-family="Helvetica" font-size="11" font-weight="bold" lengthAdjust="spacingAndGlyphs" textLength="115" x="543.75" y="600.2104">origenDelRegistro</text><text fill="#000000" font-family="Helvetica" font-size="11" lengthAdjust="spacingAndGlyphs" textLength="172" x="662.75" y="600.2104">distingue quien cerro la toma:</text><text fill="#000000" font-family="Helvetica" font-size="11" lengthAdjust="spacingAndGlyphs" textLength="184" x="543.75" y="613.0151">PACIENTE  — la marco el mismo</text><text fill="#000000" font-family="Helvetica" font-size="11" lengthAdjust="spacingAndGlyphs" textLength="243" x="543.75" y="625.8198">CUIDADOR  — la marco quien lo acompana</text><text fill="#000000" font-family="Helvetica" font-size="11" lengthAdjust="spacingAndGlyphs" textLength="265" x="543.75" y="638.6245">SISTEMA   — nadie respondio y vencio el plazo</text><path d="M239.25,299.5 L239.25,360.7188 A0,0 0 0 0 239.25,360.7188 L369.22,360.7188 L404.62,458.85 L377.22,360.7188 L488.25,360.7188 A0,0 0 0 0 488.25,360.7188 L488.25,309.5 L478.25,299.5 L239.25,299.5 A0,0 0 0 0 239.25,299.5 " fill="#FBF1E6" style="stroke: #A0530A; stroke-width: 1.0;"/><path d="M478.25,299.5 L478.25,309.5 L488.25,309.5 L478.25,299.5 " fill="#FBF1E6" style="stroke: #A0530A; stroke-width: 1.0;"/><text fill="#000000" font-family="Helvetica" font-size="11" lengthAdjust="spacingAndGlyphs" textLength="228" x="245.25" y="314.7104">TOMADA y OMITIDA son estados finales.</text><text fill="#000000" font-family="Helvetica" font-size="11" lengthAdjust="spacingAndGlyphs" textLength="144" x="245.25" y="327.5151">Intentar cambiarlos lanza</text><text fill="#000000" font-family="Helvetica" font-size="11" lengthAdjust="spacingAndGlyphs" textLength="206" x="245.25" y="340.3198">ErrorDeReglaDeNegocio: un registro</text><text fill="#000000" font-family="Helvetica" font-size="11" lengthAdjust="spacingAndGlyphs" textLength="133" x="245.25" y="353.1245">clinico no se reescribe.</text><!--MD5=[ecad8b4bbe8e5bcd1a889f34c234217d]
link *start to PENDIENTE--><path d="M1033.75,28.26 C1033.75,45.32 1033.75,82.88 1033.75,114.62 " fill="none" id="*start-&gt;PENDIENTE" style="stroke: #4E5C59; stroke-width: 1.0;"/><polygon fill="#4E5C59" points="1033.75,119.66,1037.75,110.66,1033.75,114.66,1029.75,110.66,1033.75,119.66" style="stroke: #4E5C59; stroke-width: 1.0;"/><text fill="#000000" font-family="Helvetica" font-size="13" lengthAdjust="spacingAndGlyphs" textLength="78" x="1084.75" y="71.0669">programar()</text><text fill="#000000" font-family="Helvetica" font-size="13" font-style="italic" lengthAdjust="spacingAndGlyphs" textLength="178" x="1034.75" y="86.1997">al generar la agenda del dia</text><!--MD5=[7e563ae27fe22d81d52eacd29820a13a]
link PENDIENTE to TOMADA--><path d="M889.23,176.37 C624.35,191.36 82.92,229.48 26.75,293 C-64.62,396.31 171.36,452.68 314.47,476.55 " fill="none" id="PENDIENTE-&gt;TOMADA" style="stroke: #4E5C59; stroke-width: 1.0;"/><polygon fill="#4E5C59" points="319.52,477.38,311.2924,471.9664,314.5869,476.565,309.9883,479.8594,319.52,477.38" style="stroke: #4E5C59; stroke-width: 1.0;"/><text fill="#000000" font-family="Helvetica" font-size="13" lengthAdjust="spacingAndGlyphs" textLength="193" x="27.75" y="334.5669">confirmar(paciente | cuidador)</text><!--MD5=[711ed513233d562787429b179ff283b9]
link PENDIENTE to OMITIDA--><path d="M1082.27,216.09 C1119.76,258.27 1159.81,320.47 1124.75,367 C1085.28,419.37 911.05,456.3 796.56,475.43 " fill="none" id="PENDIENTE-&gt;OMITIDA" style="stroke: #4E5C59; stroke-width: 1.0;"/><polygon fill="#4E5C59" points="791.49,476.27,801.0217,478.7494,796.4231,475.455,799.7176,470.8564,791.49,476.27" style="stroke: #4E5C59; stroke-width: 1.0;"/><text fill="#000000" font-family="Helvetica" font-size="13" lengthAdjust="spacingAndGlyphs" textLength="169" x="1138.75" y="334.5669">omitir(paciente | cuidador)</text><!--MD5=[711ed513233d562787429b179ff283b9]
link PENDIENTE to OMITIDA--><path d="M1178.38,210.1 C1273.03,244.42 1370.07,298.7 1316.75,367 C1253.98,447.39 956.61,476.09 796.47,485.82 " fill="none" id="PENDIENTE-&gt;OMITIDA-1" style="stroke: #4E5C59; stroke-width: 1.0;"/><polygon fill="#4E5C59" points="791.3,486.13,800.5234,489.5838,796.291,485.8305,800.0443,481.5982,791.3,486.13" style="stroke: #4E5C59; stroke-width: 1.0;"/><text fill="#000000" font-family="Helvetica" font-size="13" lengthAdjust="spacingAndGlyphs" textLength="185" x="1377.75" y="319.5669">cerrarPorFaltaDeRespuesta()</text><text fill="#000000" font-family="Helvetica" font-size="13" font-style="italic" lengthAdjust="spacingAndGlyphs" textLength="111" x="1414.75" y="334.6997">tarea automatica</text><text fill="#000000" font-family="Helvetica" font-size="13" lengthAdjust="spacingAndGlyphs" textLength="275" x="1332.75" y="349.8325">[ahora &gt; programada + minutosDeGracia]</text><!--MD5=[174de613a8dfcdb9ce65d542fe0337d3]
link PENDIENTE to POSPUESTA--><path d="M907.64,216.03 C837.77,242.09 752.74,273.8 690.58,296.99 " fill="none" id="PENDIENTE-&gt;POSPUESTA" style="stroke: #4E5C59; stroke-width: 1.0;"/><polygon fill="#4E5C59" points="685.77,298.78,695.6005,299.3817,690.4546,297.0322,692.804,291.8864,685.77,298.78" style="stroke: #4E5C59; stroke-width: 1.0;"/><text fill="#000000" font-family="Helvetica" font-size="13" lengthAdjust="spacingAndGlyphs" textLength="138" x="819.75" y="259.0669">posponer(5..180 min)</text><!--MD5=[ba90325dbd1bf2641955d7c29a306721]
link POSPUESTA to TOMADA--><path d="M557.37,362.57 C542.42,373.07 526.07,385.12 511.75,397 C489.8,415.19 466.76,437.25 448.65,455.38 " fill="none" id="POSPUESTA-&gt;TOMADA" style="stroke: #4E5C59; stroke-width: 1.0;"/><polygon fill="#4E5C59" points="445.1,458.95,454.2852,455.3959,448.6284,455.4073,448.617,449.7505,445.1,458.95" style="stroke: #4E5C59; stroke-width: 1.0;"/><text fill="#000000" font-family="Helvetica" font-size="13" lengthAdjust="spacingAndGlyphs" textLength="71" x="512.75" y="417.5669">confirmar()</text><!--MD5=[97b2166ab471659ac9a78ae212ecd5fa]
link POSPUESTA to OMITIDA--><path d="M596.03,362.85 C592.32,382.98 590.99,408.88 601.75,429 C607.21,439.23 615.22,448.06 624.26,455.57 " fill="none" id="POSPUESTA-&gt;OMITIDA" style="stroke: #4E5C59; stroke-width: 1.0;"/><polygon fill="#4E5C59" points="628.19,458.71,623.6571,449.9663,624.2843,455.5883,618.6623,456.2155,628.19,458.71" style="stroke: #4E5C59; stroke-width: 1.0;"/><text fill="#000000" font-family="Helvetica" font-size="13" lengthAdjust="spacingAndGlyphs" textLength="47" x="602.75" y="417.5669">omitir()</text><!--MD5=[97b2166ab471659ac9a78ae212ecd5fa]
link POSPUESTA to OMITIDA--><path d="M631.38,362.77 C639.48,373.27 648.01,385.29 654.75,397 C665.08,414.98 674.17,436.23 680.97,453.93 " fill="none" id="POSPUESTA-&gt;OMITIDA-1" style="stroke: #4E5C59; stroke-width: 1.0;"/><polygon fill="#4E5C59" points="682.82,458.82,683.379,448.987,681.0519,454.1431,675.8958,451.816,682.82,458.82" style="stroke: #4E5C59; stroke-width: 1.0;"/><text fill="#000000" font-family="Helvetica" font-size="13" lengthAdjust="spacingAndGlyphs" textLength="185" x="669.75" y="410.0669">cerrarPorFaltaDeRespuesta()</text><text fill="#000000" font-family="Helvetica" font-size="13" font-style="italic" lengthAdjust="spacingAndGlyphs" textLength="111" x="706.75" y="425.1997">tarea automatica</text><!--MD5=[7dab6fca24c991558b809560cecc11bc]
link POSPUESTA to POSPUESTA--><path d="M685.79,316.33 C705.81,317.31 720.75,321.87 720.75,330 C720.75,337.43 708.27,341.88 690.83,343.34 " fill="none" id="POSPUESTA-&gt;POSPUESTA" style="stroke: #4E5C59; stroke-width: 1.0;"/><polygon fill="#4E5C59" points="685.79,343.67,695.0336,347.0695,690.7792,343.3412,694.5075,339.0868,685.79,343.67" style="stroke: #4E5C59; stroke-width: 1.0;"/><text fill="#000000" font-family="Helvetica" font-size="13" lengthAdjust="spacingAndGlyphs" textLength="70" x="762.25" y="327.0669">posponer()</text><text fill="#000000" font-family="Helvetica" font-size="13" lengthAdjust="spacingAndGlyphs" textLength="141" x="726.75" y="342.1997">[vecesPospuesta &lt; 3]</text><!--MD5=[65558f276bdb314db947e13631e8033b]
link TOMADA to *end--><path d="M433.21,524.24 C447.94,549.53 467.78,583.63 478.37,601.82 " fill="none" id="TOMADA-&gt;*end" style="stroke: #4E5C59; stroke-width: 1.0;"/><polygon fill="#4E5C59" points="481.1,606.51,480.0243,596.7201,478.5824,602.1901,473.1124,600.7482,481.1,606.51" style="stroke: #4E5C59; stroke-width: 1.0;"/><!--MD5=[e93195ef049e839cb5be6cf3524f89e2]
link OMITIDA to *end--><path d="M626.96,524.08 C594.04,540.67 554.29,562.26 520.75,585 C512.14,590.83 503.19,598.41 496.49,604.42 " fill="none" id="OMITIDA-&gt;*end" style="stroke: #4E5C59; stroke-width: 1.0;"/><polygon fill="#4E5C59" points="492.64,607.94,501.9806,604.8169,496.3293,604.5653,496.581,598.914,492.64,607.94" style="stroke: #4E5C59; stroke-width: 1.0;"/><!--MD5=[4c8022c0fe30b2c4460a30386a86e862]
@startuml 04-estados-toma

skinparam backgroundColor #FFFFFF
skinparam shadowing false
skinparam defaultFontName Helvetica
skinparam defaultFontSize 13
skinparam ArrowColor #4E5C59

skinparam state {
  BorderColor #185A66
  BackgroundColor #F2F8F7
  FontColor #101817
  StartColor #185A66
  EndColor #101817
  BorderThickness 1.3
}
skinparam note {
  BorderColor #A0530A
  BackgroundColor #FBF1E6
  FontSize 11
}

[*] - -> PENDIENTE : programar()\n<i>al generar la agenda del dia</i>

state PENDIENTE #F2F8F7 : La toma existe y espera respuesta.\nEs la clave del proyecto: el registro\nse crea aunque el paciente no haga nada,\nasi el olvido queda documentado.

state POSPUESTA #FEF6E9 : Se corrio la hora.\nvecesPospuesta <= 3

state TOMADA #E8F6EC : resueltaEn registrado\nSe descuenta el inventario

state OMITIDA #FBEAE9 : resueltaEn registrado\nNo se descuenta inventario

PENDIENTE - -> TOMADA : confirmar(paciente | cuidador)
PENDIENTE - -> OMITIDA : omitir(paciente | cuidador)
PENDIENTE - -> POSPUESTA : posponer(5..180 min)

POSPUESTA - -> TOMADA : confirmar()
POSPUESTA - -> OMITIDA : omitir()
POSPUESTA - -> POSPUESTA : posponer()\n[vecesPospuesta < 3]

PENDIENTE - -> OMITIDA : cerrarPorFaltaDeRespuesta()\n<i>tarea automatica</i>\n[ahora > programada + minutosDeGracia]
POSPUESTA - -> OMITIDA : cerrarPorFaltaDeRespuesta()\n<i>tarea automatica</i>

TOMADA - -> [*]
OMITIDA - -> [*]

note right of POSPUESTA
  Al cuarto intento de posponer se
  lanza ErrorDeReglaDeNegocio.
  El limite evita que aplazar se
  convierta en una forma silenciosa
  de nunca tomar el medicamento.
end note

note bottom of OMITIDA
  <b>origenDelRegistro</b> distingue quien cerro la toma:
  PACIENTE  — la marco el mismo
  CUIDADOR  — la marco quien lo acompana
  SISTEMA   — nadie respondio y vencio el plazo
end note

note top of TOMADA
  TOMADA y OMITIDA son estados finales.
  Intentar cambiarlos lanza
  ErrorDeReglaDeNegocio: un registro
  clinico no se reescribe.
end note

@enduml

PlantUML version 1.2020.02(Sun Mar 01 10:22:07 UTC 2020)
(GPL source distribution)
Java Runtime: OpenJDK Runtime Environment
JVM: OpenJDK 64-Bit Server VM
Java Version: 21.0.10+7-Ubuntu-124.04
Operating System: Linux
Default Encoding: UTF-8
Language: en
Country: US
--></g></svg>