<?xml version="1.0" encoding="UTF-8" standalone="no"?><svg xmlns="http://www.w3.org/2000/svg" xmlns:xlink="http://www.w3.org/1999/xlink" contentScriptType="application/ecmascript" contentStyleType="text/css" height="1487px" preserveAspectRatio="none" style="width:1933px;height:1487px;" version="1.1" viewBox="0 0 1933 1487" width="1933px" zoomAndPan="magnify"><defs/><g><rect fill="#FBFCFC" height="1472.1953" style="stroke: #C2CFCC; stroke-width: 1.0;" width="305" x="214" y="4"/><text fill="#4E5C59" font-family="Helvetica" font-size="12" font-weight="bold" lengthAdjust="spacingAndGlyphs" textLength="179" x="277" y="15.1387">Infraestructura (entrada)</text><rect fill="#FBFCFC" height="1472.1953" style="stroke: #C2CFCC; stroke-width: 1.0;" width="320" x="766" y="4"/><text fill="#4E5C59" font-family="Helvetica" font-size="12" font-weight="bold" lengthAdjust="spacingAndGlyphs" textLength="71" x="890.5" y="15.1387">Aplicacion</text><rect fill="#F5FAF9" height="1472.1953" style="stroke: #C2CFCC; stroke-width: 1.0;" width="229" x="1105.5" y="4"/><text fill="#4E5C59" font-family="Helvetica" font-size="12" font-weight="bold" lengthAdjust="spacingAndGlyphs" textLength="57" x="1191.5" y="15.1387">Dominio</text><rect fill="#FBFCFC" height="1472.1953" style="stroke: #C2CFCC; stroke-width: 1.0;" width="446" x="1469" y="4"/><text fill="#4E5C59" font-family="Helvetica" font-size="12" font-weight="bold" lengthAdjust="spacingAndGlyphs" textLength="165" x="1609.5" y="15.1387">Infraestructura (salida)</text><rect fill="#EDF2F1" height="1197.0703" style="stroke: #A9BAB7; stroke-width: 1.0;" width="10" x="249.5" y="109.9375"/><rect fill="#EDF2F1" height="1058.2578" style="stroke: #A9BAB7; stroke-width: 1.0;" width="10" x="464.5" y="151.875"/><rect fill="#EDF2F1" height="896.9688" style="stroke: #A9BAB7; stroke-width: 1.0;" width="10" x="817.5" y="293.1953"/><rect fill="#EDF2F1" height="141.8438" style="stroke: #A9BAB7; stroke-width: 1.0;" width="10" x="1016.5" y="405.0391"/><rect fill="#EDF2F1" height="140.8438" style="stroke: #A9BAB7; stroke-width: 1.0;" width="10" x="1129.5" y="574.8516"/><rect fill="#EDF2F1" height="82.9063" style="stroke: #A9BAB7; stroke-width: 1.0;" width="10" x="1276.5" y="878.5078"/><rect fill="#EDF2F1" height="27.9688" style="stroke: #A9BAB7; stroke-width: 1.0;" width="10" x="1539.5" y="321.1641"/><rect fill="#EDF2F1" height="27.9688" style="stroke: #A9BAB7; stroke-width: 1.0;" width="10" x="1539.5" y="743.6641"/><rect fill="#EDF2F1" height="27.9688" style="stroke: #A9BAB7; stroke-width: 1.0;" width="10" x="1717.5" y="822.5703"/><rect fill="#EDF2F1" height="27.9688" style="stroke: #A9BAB7; stroke-width: 1.0;" width="10" x="1717.5" y="989.3828"/><rect fill="#EDF2F1" height="27.9688" style="stroke: #A9BAB7; stroke-width: 1.0;" width="10" x="1865" y="1075.2891"/><rect fill="#FFFFFF" height="99.875" style="stroke: #A0530A; stroke-width: 2.0;" width="884" x="208" y="420.0391"/><rect fill="#FFFFFF" height="43.9375" style="stroke: #A0530A; stroke-width: 2.0;" width="409.5" x="760" y="589.8516"/><rect fill="#FFFFFF" height="238.7188" style="stroke: #A0530A; stroke-width: 2.0;" width="1069" x="760" y="786.6328"/><rect fill="#FFFFFF" height="143.8125" style="stroke: #A0530A; stroke-width: 2.0;" width="1507" x="414" y="1039.3516"/><rect fill="#FFFFFF" height="43.9375" style="stroke: none; stroke-width: 1.0;" width="1507" x="414" y="1139.2266"/><line style="stroke: #A9BAB7; stroke-width: 1.0; stroke-dasharray: 5.0,5.0;" x1="38" x2="38" y1="79.9688" y2="1396.2266"/><line style="stroke: #A9BAB7; stroke-width: 1.0; stroke-dasharray: 5.0,5.0;" x1="254" x2="254" y1="79.9688" y2="1396.2266"/><line style="stroke: #A9BAB7; stroke-width: 1.0; stroke-dasharray: 5.0,5.0;" x1="469" x2="469" y1="79.9688" y2="1396.2266"/><line style="stroke: #A9BAB7; stroke-width: 1.0; stroke-dasharray: 5.0,5.0;" x1="822" x2="822" y1="79.9688" y2="1396.2266"/><line style="stroke: #A9BAB7; stroke-width: 1.0; stroke-dasharray: 5.0,5.0;" x1="1021" x2="1021" y1="79.9688" y2="1396.2266"/><line style="stroke: #A9BAB7; stroke-width: 1.0; stroke-dasharray: 5.0,5.0;" x1="1134.5" x2="1134.5" y1="79.9688" y2="1396.2266"/><line style="stroke: #A9BAB7; stroke-width: 1.0; stroke-dasharray: 5.0,5.0;" x1="1281.5" x2="1281.5" y1="79.9688" y2="1396.2266"/><line style="stroke: #A9BAB7; stroke-width: 1.0; stroke-dasharray: 5.0,5.0;" x1="1544" x2="1544" y1="79.9688" y2="1396.2266"/><line style="stroke: #A9BAB7; stroke-width: 1.0; stroke-dasharray: 5.0,5.0;" x1="1722" x2="1722" y1="79.9688" y2="1396.2266"/><line style="stroke: #A9BAB7; stroke-width: 1.0; stroke-dasharray: 5.0,5.0;" x1="1870" x2="1870" y1="79.9688" y2="1396.2266"/><text fill="#000000" font-family="Helvetica" font-size="12" lengthAdjust="spacingAndGlyphs" textLength="55" x="8" y="77.1387">Paciente</text><ellipse cx="38.5" cy="13" fill="#FFFFFF" rx="8" ry="8" style="stroke: #185A66; stroke-width: 2.0;"/><path d="M38.5,21 L38.5,48 M25.5,29 L51.5,29 M38.5,48 L25.5,63 M38.5,48 L51.5,63 " fill="none" style="stroke: #185A66; stroke-width: 2.0;"/><text fill="#000000" font-family="Helvetica" font-size="12" lengthAdjust="spacingAndGlyphs" textLength="55" x="8" y="1406.3652">Paciente</text><ellipse cx="38.5" cy="1419.1953" fill="#FFFFFF" rx="8" ry="8" style="stroke: #185A66; stroke-width: 2.0;"/><path d="M38.5,1427.1953 L38.5,1454.1953 M25.5,1435.1953 L51.5,1435.1953 M38.5,1454.1953 L25.5,1469.1953 M38.5,1454.1953 L51.5,1469.1953 " fill="none" style="stroke: #185A66; stroke-width: 2.0;"/><rect fill="#FFFFFF" height="39.6094" style="stroke: #185A66; stroke-width: 1.5;" width="73" x="218" y="39.3594"/><text fill="#101817" font-family="Helvetica" font-size="12" lengthAdjust="spacingAndGlyphs" textLength="59" x="225" y="57.498">App movil</text><text fill="#101817" font-family="Helvetica" font-size="10" lengthAdjust="spacingAndGlyphs" textLength="36" x="236.5" y="69.6104">hoy.tsx</text><rect fill="#FFFFFF" height="39.6094" style="stroke: #185A66; stroke-width: 1.5;" width="73" x="218" y="1395.2266"/><text fill="#101817" font-family="Helvetica" font-size="12" lengthAdjust="spacingAndGlyphs" textLength="59" x="225" y="1413.3652">App movil</text><text fill="#101817" font-family="Helvetica" font-size="10" lengthAdjust="spacingAndGlyphs" textLength="36" x="236.5" y="1425.4775">hoy.tsx</text><rect fill="#FFFFFF" height="39.6094" style="stroke: #185A66; stroke-width: 1.5;" width="91" x="424" y="39.3594"/><text fill="#101817" font-family="Helvetica" font-size="12" lengthAdjust="spacingAndGlyphs" textLength="54" x="442.5" y="57.498">API HTTP</text><text fill="#101817" font-family="Helvetica" font-size="10" lengthAdjust="spacingAndGlyphs" textLength="77" x="431" y="69.6104">routes/tomas.ts</text><rect fill="#FFFFFF" height="39.6094" style="stroke: #185A66; stroke-width: 1.5;" width="91" x="424" y="1395.2266"/><text fill="#101817" font-family="Helvetica" font-size="12" lengthAdjust="spacingAndGlyphs" textLength="54" x="442.5" y="1413.3652">API HTTP</text><text fill="#101817" font-family="Helvetica" font-size="10" lengthAdjust="spacingAndGlyphs" textLength="77" x="431" y="1425.4775">routes/tomas.ts</text><rect fill="#FFFFFF" height="39.6094" style="stroke: #185A66; stroke-width: 1.5;" width="105" x="770" y="39.3594"/><text fill="#101817" font-family="Helvetica" font-size="12" lengthAdjust="spacingAndGlyphs" textLength="91" x="777" y="57.498">RegistrarToma</text><text fill="#101817" font-family="Helvetica" font-size="10" lengthAdjust="spacingAndGlyphs" textLength="57" x="794" y="69.6104">caso de uso</text><rect fill="#FFFFFF" height="39.6094" style="stroke: #185A66; stroke-width: 1.5;" width="105" x="770" y="1395.2266"/><text fill="#101817" font-family="Helvetica" font-size="12" lengthAdjust="spacingAndGlyphs" textLength="91" x="777" y="1413.3652">RegistrarToma</text><text fill="#101817" font-family="Helvetica" font-size="10" lengthAdjust="spacingAndGlyphs" textLength="57" x="794" y="1425.4775">caso de uso</text><rect fill="#FFFFFF" height="27.9688" style="stroke: #185A66; stroke-width: 1.5;" width="121" x="961" y="51"/><text fill="#101817" font-family="Helvetica" font-size="12" lengthAdjust="spacingAndGlyphs" textLength="107" x="968" y="69.1387">PoliticaDeAcceso</text><rect fill="#FFFFFF" height="27.9688" style="stroke: #185A66; stroke-width: 1.5;" width="121" x="961" y="1395.2266"/><text fill="#101817" font-family="Helvetica" font-size="12" lengthAdjust="spacingAndGlyphs" textLength="107" x="968" y="1413.3652">PoliticaDeAcceso</text><rect fill="#FFFFFF" height="39.6094" style="stroke: #185A66; stroke-width: 1.5;" width="50" x="1109.5" y="39.3594"/><text fill="#101817" font-family="Helvetica" font-size="12" lengthAdjust="spacingAndGlyphs" textLength="34" x="1117.5" y="57.498">Toma</text><text fill="#101817" font-family="Helvetica" font-size="10" lengthAdjust="spacingAndGlyphs" textLength="36" x="1116.5" y="69.6104">entidad</text><rect fill="#FFFFFF" height="39.6094" style="stroke: #185A66; stroke-width: 1.5;" width="50" x="1109.5" y="1395.2266"/><text fill="#101817" font-family="Helvetica" font-size="12" lengthAdjust="spacingAndGlyphs" textLength="34" x="1117.5" y="1413.3652">Toma</text><text fill="#101817" font-family="Helvetica" font-size="10" lengthAdjust="spacingAndGlyphs" textLength="36" x="1116.5" y="1425.4775">entidad</text><rect fill="#FFFFFF" height="39.6094" style="stroke: #185A66; stroke-width: 1.5;" width="98" x="1232.5" y="39.3594"/><text fill="#101817" font-family="Helvetica" font-size="12" lengthAdjust="spacingAndGlyphs" textLength="84" x="1239.5" y="57.498">Medicamento</text><text fill="#101817" font-family="Helvetica" font-size="10" lengthAdjust="spacingAndGlyphs" textLength="36" x="1263.5" y="69.6104">entidad</text><rect fill="#FFFFFF" height="39.6094" style="stroke: #185A66; stroke-width: 1.5;" width="98" x="1232.5" y="1395.2266"/><text fill="#101817" font-family="Helvetica" font-size="12" lengthAdjust="spacingAndGlyphs" textLength="84" x="1239.5" y="1413.3652">Medicamento</text><text fill="#101817" font-family="Helvetica" font-size="10" lengthAdjust="spacingAndGlyphs" textLength="36" x="1263.5" y="1425.4775">entidad</text><rect fill="#FFFFFF" height="39.6094" style="stroke: #185A66; stroke-width: 1.5;" width="143" x="1473" y="39.3594"/><text fill="#101817" font-family="Helvetica" font-size="12" lengthAdjust="spacingAndGlyphs" textLength="129" x="1480" y="57.498">RepositorioDeTomas</text><text fill="#101817" font-family="Helvetica" font-size="10" lengthAdjust="spacingAndGlyphs" textLength="59" x="1515" y="69.6104">PostgreSQL</text><rect fill="#FFFFFF" height="39.6094" style="stroke: #185A66; stroke-width: 1.5;" width="143" x="1473" y="1395.2266"/><text fill="#101817" font-family="Helvetica" font-size="12" lengthAdjust="spacingAndGlyphs" textLength="129" x="1480" y="1413.3652">RepositorioDeTomas</text><text fill="#101817" font-family="Helvetica" font-size="10" lengthAdjust="spacingAndGlyphs" textLength="59" x="1515" y="1425.4775">PostgreSQL</text><rect fill="#FFFFFF" height="39.6094" style="stroke: #185A66; stroke-width: 1.5;" width="193" x="1626" y="39.3594"/><text fill="#101817" font-family="Helvetica" font-size="12" lengthAdjust="spacingAndGlyphs" textLength="179" x="1633" y="57.498">RepositorioDeMedicamentos</text><text fill="#101817" font-family="Helvetica" font-size="10" lengthAdjust="spacingAndGlyphs" textLength="59" x="1693" y="69.6104">PostgreSQL</text><rect fill="#FFFFFF" height="39.6094" style="stroke: #185A66; stroke-width: 1.5;" width="193" x="1626" y="1395.2266"/><text fill="#101817" font-family="Helvetica" font-size="12" lengthAdjust="spacingAndGlyphs" textLength="179" x="1633" y="1413.3652">RepositorioDeMedicamentos</text><text fill="#101817" font-family="Helvetica" font-size="10" lengthAdjust="spacingAndGlyphs" textLength="59" x="1693" y="1425.4775">PostgreSQL</text><rect fill="#FFFFFF" height="27.9688" style="stroke: #185A66; stroke-width: 1.5;" width="82" x="1829" y="51"/><text fill="#101817" font-family="Helvetica" font-size="12" lengthAdjust="spacingAndGlyphs" textLength="68" x="1836" y="69.1387">Notificador</text><rect fill="#FFFFFF" height="27.9688" style="stroke: #185A66; stroke-width: 1.5;" width="82" x="1829" y="1395.2266"/><text fill="#101817" font-family="Helvetica" font-size="12" lengthAdjust="spacingAndGlyphs" textLength="68" x="1836" y="1413.3652">Notificador</text><rect fill="#EDF2F1" height="1197.0703" style="stroke: #A9BAB7; stroke-width: 1.0;" width="10" x="249.5" y="109.9375"/><rect fill="#EDF2F1" height="1058.2578" style="stroke: #A9BAB7; stroke-width: 1.0;" width="10" x="464.5" y="151.875"/><rect fill="#EDF2F1" height="896.9688" style="stroke: #A9BAB7; stroke-width: 1.0;" width="10" x="817.5" y="293.1953"/><rect fill="#EDF2F1" height="141.8438" style="stroke: #A9BAB7; stroke-width: 1.0;" width="10" x="1016.5" y="405.0391"/><rect fill="#EDF2F1" height="140.8438" style="stroke: #A9BAB7; stroke-width: 1.0;" width="10" x="1129.5" y="574.8516"/><rect fill="#EDF2F1" height="82.9063" style="stroke: #A9BAB7; stroke-width: 1.0;" width="10" x="1276.5" y="878.5078"/><rect fill="#EDF2F1" height="27.9688" style="stroke: #A9BAB7; stroke-width: 1.0;" width="10" x="1539.5" y="321.1641"/><rect fill="#EDF2F1" height="27.9688" style="stroke: #A9BAB7; stroke-width: 1.0;" width="10" x="1539.5" y="743.6641"/><rect fill="#EDF2F1" height="27.9688" style="stroke: #A9BAB7; stroke-width: 1.0;" width="10" x="1717.5" y="822.5703"/><rect fill="#EDF2F1" height="27.9688" style="stroke: #A9BAB7; stroke-width: 1.0;" width="10" x="1717.5" y="989.3828"/><rect fill="#EDF2F1" height="27.9688" style="stroke: #A9BAB7; stroke-width: 1.0;" width="10" x="1865" y="1075.2891"/><polygon fill="#101817" points="237.5,105.9375,247.5,109.9375,237.5,113.9375,241.5,109.9375" style="stroke: #101817; stroke-width: 1.0;"/><line style="stroke: #101817; stroke-width: 1.0;" x1="38.5" x2="243.5" y1="109.9375" y2="109.9375"/><text fill="#000000" font-family="Helvetica" font-size="12" lengthAdjust="spacingAndGlyphs" textLength="108" x="90" y="105.1074">toca "Ya la tome"</text><polygon fill="#101817" points="452.5,147.875,462.5,151.875,452.5,155.875,456.5,151.875" style="stroke: #101817; stroke-width: 1.0;"/><line style="stroke: #101817; stroke-width: 1.0;" x1="259.5" x2="458.5" y1="151.875" y2="151.875"/><text fill="#000000" font-family="Helvetica" font-size="12" lengthAdjust="spacingAndGlyphs" textLength="186" x="269" y="133.0762">POST /api/tomas/{id}/registro</text><text fill="#000000" font-family="Helvetica" font-size="12" lengthAdjust="spacingAndGlyphs" textLength="153" x="285.5" y="147.0449">{ accion: "CONFIRMAR" }</text><line style="stroke: #101817; stroke-width: 1.0;" x1="474.5" x2="516.5" y1="193.8125" y2="193.8125"/><line style="stroke: #101817; stroke-width: 1.0;" x1="516.5" x2="516.5" y1="193.8125" y2="206.8125"/><line style="stroke: #101817; stroke-width: 1.0;" x1="475.5" x2="516.5" y1="206.8125" y2="206.8125"/><polygon fill="#101817" points="485.5,202.8125,475.5,206.8125,485.5,210.8125,481.5,206.8125" style="stroke: #101817; stroke-width: 1.0;"/><text fill="#000000" font-family="Helvetica" font-size="12" lengthAdjust="spacingAndGlyphs" textLength="124" x="481.5" y="175.0137">verificar token (JWT)</text><text fill="#000000" font-family="Helvetica" font-size="12" lengthAdjust="spacingAndGlyphs" textLength="128" x="481.5" y="188.9824">validar cuerpo (Zod)</text><path d="M479,219.8125 L479,267.8125 L688,267.8125 L688,229.8125 L678,219.8125 L479,219.8125 " fill="#FBF1E6" style="stroke: #A0530A; stroke-width: 1.0;"/><path d="M678,219.8125 L678,229.8125 L688,229.8125 L678,219.8125 " fill="#FBF1E6" style="stroke: #A0530A; stroke-width: 1.0;"/><text fill="#000000" font-family="Helvetica" font-size="11" lengthAdjust="spacingAndGlyphs" textLength="170" x="485" y="235.0229">El adaptador HTTP solo valida</text><text fill="#000000" font-family="Helvetica" font-size="11" lengthAdjust="spacingAndGlyphs" textLength="155" x="485" y="247.8276">la FORMA de los datos. Las</text><text fill="#000000" font-family="Helvetica" font-size="11" lengthAdjust="spacingAndGlyphs" textLength="188" x="485" y="260.6323">reglas de negocio no estan aqui.</text><polygon fill="#101817" points="805.5,289.1953,815.5,293.1953,805.5,297.1953,809.5,293.1953" style="stroke: #101817; stroke-width: 1.0;"/><line style="stroke: #101817; stroke-width: 1.0;" x1="474.5" x2="811.5" y1="293.1953" y2="293.1953"/><text fill="#000000" font-family="Helvetica" font-size="12" lengthAdjust="spacingAndGlyphs" textLength="251" x="520.5" y="288.3652">ejecutar({ solicitante, tomaId, accion })</text><polygon fill="#101817" points="1527.5,317.1641,1537.5,321.1641,1527.5,325.1641,1531.5,321.1641" style="stroke: #101817; stroke-width: 1.0;"/><line style="stroke: #101817; stroke-width: 1.0;" x1="827.5" x2="1533.5" y1="321.1641" y2="321.1641"/><text fill="#000000" font-family="Helvetica" font-size="12" lengthAdjust="spacingAndGlyphs" textLength="128" x="1119.5" y="316.334">buscarPorId(tomaId)</text><polygon fill="#101817" points="838.5,345.1328,828.5,349.1328,838.5,353.1328,834.5,349.1328" style="stroke: #101817; stroke-width: 1.0;"/><line style="stroke: #101817; stroke-width: 1.0; stroke-dasharray: 2.0,2.0;" x1="832.5" x2="1543.5" y1="349.1328" y2="349.1328"/><text fill="#000000" font-family="Helvetica" font-size="12" lengthAdjust="spacingAndGlyphs" textLength="34" x="1169" y="344.3027">Toma</text><polygon fill="#101817" points="1004.5,401.0391,1014.5,405.0391,1004.5,409.0391,1008.5,405.0391" style="stroke: #101817; stroke-width: 1.0;"/><line style="stroke: #101817; stroke-width: 1.0;" x1="827.5" x2="1010.5" y1="405.0391" y2="405.0391"/><text fill="#000000" font-family="Helvetica" font-size="12" lengthAdjust="spacingAndGlyphs" textLength="170" x="837" y="372.2715">asegurarAccesoAPaciente(</text><text fill="#000000" font-family="Helvetica" font-size="12" lengthAdjust="spacingAndGlyphs" textLength="143" x="854.5" y="386.2402">solicitante, pacienteId,</text><text fill="#000000" font-family="Helvetica" font-size="12" lengthAdjust="spacingAndGlyphs" textLength="153" x="849.5" y="400.209">"puedeRegistrarTomas")</text><path d="M208,420.0391 L272,420.0391 L272,425.0391 L262,435.0391 L208,435.0391 L208,420.0391 " fill="#EEEEEE" style="stroke: #A0530A; stroke-width: 1.0;"/><rect fill="none" height="99.875" style="stroke: #A0530A; stroke-width: 2.0;" width="884" x="208" y="420.0391"/><text fill="#A0530A" font-family="Helvetica" font-size="12" font-weight="bold" lengthAdjust="spacingAndGlyphs" textLength="19" x="223" y="432.1777">alt</text><text fill="#000000" font-family="Helvetica" font-size="12" font-weight="bold" lengthAdjust="spacingAndGlyphs" textLength="183" x="287" y="433.1777">[sin vinculo o sin permiso]</text><polygon fill="#101817" points="838.5,451.9766,828.5,455.9766,838.5,459.9766,834.5,455.9766" style="stroke: #101817; stroke-width: 1.0;"/><line style="stroke: #101817; stroke-width: 1.0; stroke-dasharray: 2.0,2.0;" x1="832.5" x2="1015.5" y1="455.9766" y2="455.9766"/><text fill="#000000" font-family="Helvetica" font-size="12" lengthAdjust="spacingAndGlyphs" textLength="124" x="860" y="451.1465">ErrorDeAutorizacion</text><polygon fill="#101817" points="485.5,479.9453,475.5,483.9453,485.5,487.9453,481.5,483.9453" style="stroke: #101817; stroke-width: 1.0;"/><line style="stroke: #101817; stroke-width: 1.0; stroke-dasharray: 2.0,2.0;" x1="479.5" x2="816.5" y1="483.9453" y2="483.9453"/><text fill="#000000" font-family="Helvetica" font-size="12" lengthAdjust="spacingAndGlyphs" textLength="73" x="609.5" y="479.1152">(excepcion)</text><polygon fill="#101817" points="270.5,507.9141,260.5,511.9141,270.5,515.9141,266.5,511.9141" style="stroke: #101817; stroke-width: 1.0;"/><line style="stroke: #101817; stroke-width: 1.0; stroke-dasharray: 2.0,2.0;" x1="264.5" x2="463.5" y1="511.9141" y2="511.9141"/><text fill="#000000" font-family="Helvetica" font-size="12" lengthAdjust="spacingAndGlyphs" textLength="164" x="280" y="507.084">403 "No tienes permiso..."</text><polygon fill="#101817" points="838.5,542.8828,828.5,546.8828,838.5,550.8828,834.5,546.8828" style="stroke: #101817; stroke-width: 1.0;"/><line style="stroke: #101817; stroke-width: 1.0; stroke-dasharray: 2.0,2.0;" x1="832.5" x2="1020.5" y1="546.8828" y2="546.8828"/><text fill="#000000" font-family="Helvetica" font-size="12" lengthAdjust="spacingAndGlyphs" textLength="66" x="891.5" y="542.0527">autorizado</text><polygon fill="#101817" points="1117.5,570.8516,1127.5,574.8516,1117.5,578.8516,1121.5,574.8516" style="stroke: #101817; stroke-width: 1.0;"/><line style="stroke: #101817; stroke-width: 1.0;" x1="827.5" x2="1123.5" y1="574.8516" y2="574.8516"/><text fill="#000000" font-family="Helvetica" font-size="12" lengthAdjust="spacingAndGlyphs" textLength="283" x="837" y="570.0215">confirmar({ ahora, origen, registradaPorId })</text><path d="M760,589.8516 L824,589.8516 L824,594.8516 L814,604.8516 L760,604.8516 L760,589.8516 " fill="#EEEEEE" style="stroke: #A0530A; stroke-width: 1.0;"/><rect fill="none" height="43.9375" style="stroke: #A0530A; stroke-width: 2.0;" width="409.5" x="760" y="589.8516"/><text fill="#A0530A" font-family="Helvetica" font-size="12" font-weight="bold" lengthAdjust="spacingAndGlyphs" textLength="19" x="775" y="601.9902">alt</text><text fill="#000000" font-family="Helvetica" font-size="12" font-weight="bold" lengthAdjust="spacingAndGlyphs" textLength="202" x="839" y="602.9902">[la toma ya estaba resuelta]</text><polygon fill="#101817" points="838.5,621.7891,828.5,625.7891,838.5,629.7891,834.5,625.7891" style="stroke: #101817; stroke-width: 1.0;"/><line style="stroke: #101817; stroke-width: 1.0; stroke-dasharray: 2.0,2.0;" x1="832.5" x2="1128.5" y1="625.7891" y2="625.7891"/><text fill="#000000" font-family="Helvetica" font-size="12" lengthAdjust="spacingAndGlyphs" textLength="151" x="903" y="620.959">ErrorDeReglaDeNegocio</text><line style="stroke: #101817; stroke-width: 1.0;" x1="1139.5" x2="1181.5" y1="674.7266" y2="674.7266"/><line style="stroke: #101817; stroke-width: 1.0;" x1="1181.5" x2="1181.5" y1="674.7266" y2="687.7266"/><line style="stroke: #101817; stroke-width: 1.0;" x1="1140.5" x2="1181.5" y1="687.7266" y2="687.7266"/><polygon fill="#101817" points="1150.5,683.7266,1140.5,687.7266,1150.5,691.7266,1146.5,687.7266" style="stroke: #101817; stroke-width: 1.0;"/><text fill="#000000" font-family="Helvetica" font-size="12" lengthAdjust="spacingAndGlyphs" textLength="113" x="1146.5" y="655.9277">estado = TOMADA</text><text fill="#000000" font-family="Helvetica" font-size="12" lengthAdjust="spacingAndGlyphs" textLength="123" x="1146.5" y="669.8965">resueltaEn = ahora</text><polygon fill="#101817" points="838.5,711.6953,828.5,715.6953,838.5,719.6953,834.5,715.6953" style="stroke: #101817; stroke-width: 1.0;"/><line style="stroke: #101817; stroke-width: 1.0; stroke-dasharray: 2.0,2.0;" x1="832.5" x2="1133.5" y1="715.6953" y2="715.6953"/><text fill="#000000" font-family="Helvetica" font-size="12" lengthAdjust="spacingAndGlyphs" textLength="15" x="973.5" y="710.8652">ok</text><polygon fill="#101817" points="1527.5,739.6641,1537.5,743.6641,1527.5,747.6641,1531.5,743.6641" style="stroke: #101817; stroke-width: 1.0;"/><line style="stroke: #101817; stroke-width: 1.0;" x1="827.5" x2="1533.5" y1="743.6641" y2="743.6641"/><text fill="#000000" font-family="Helvetica" font-size="12" lengthAdjust="spacingAndGlyphs" textLength="92" x="1137.5" y="738.834">guardar(toma)</text><polygon fill="#101817" points="838.5,767.6328,828.5,771.6328,838.5,775.6328,834.5,771.6328" style="stroke: #101817; stroke-width: 1.0;"/><line style="stroke: #101817; stroke-width: 1.0; stroke-dasharray: 2.0,2.0;" x1="832.5" x2="1543.5" y1="771.6328" y2="771.6328"/><text fill="#000000" font-family="Helvetica" font-size="12" lengthAdjust="spacingAndGlyphs" textLength="15" x="1178.5" y="766.8027">ok</text><path d="M760,786.6328 L979,786.6328 L979,791.6328 L969,801.6328 L760,801.6328 L760,786.6328 " fill="#EEEEEE" style="stroke: #A0530A; stroke-width: 1.0;"/><rect fill="none" height="238.7188" style="stroke: #A0530A; stroke-width: 2.0;" width="1069" x="760" y="786.6328"/><text fill="#A0530A" font-family="Helvetica" font-size="12" font-weight="bold" lengthAdjust="spacingAndGlyphs" textLength="174" x="775" y="798.7715">Descuento de inventario</text><polygon fill="#101817" points="1705.5,818.5703,1715.5,822.5703,1705.5,826.5703,1709.5,822.5703" style="stroke: #101817; stroke-width: 1.0;"/><line style="stroke: #101817; stroke-width: 1.0;" x1="827.5" x2="1711.5" y1="822.5703" y2="822.5703"/><text fill="#000000" font-family="Helvetica" font-size="12" lengthAdjust="spacingAndGlyphs" textLength="181" x="1182" y="817.7402">buscarPorId(medicamentoId)</text><polygon fill="#101817" points="838.5,846.5391,828.5,850.5391,838.5,854.5391,834.5,850.5391" style="stroke: #101817; stroke-width: 1.0;"/><line style="stroke: #101817; stroke-width: 1.0; stroke-dasharray: 2.0,2.0;" x1="832.5" x2="1721.5" y1="850.5391" y2="850.5391"/><text fill="#000000" font-family="Helvetica" font-size="12" lengthAdjust="spacingAndGlyphs" textLength="84" x="1233" y="845.709">Medicamento</text><polygon fill="#101817" points="1264.5,874.5078,1274.5,878.5078,1264.5,882.5078,1268.5,878.5078" style="stroke: #101817; stroke-width: 1.0;"/><line style="stroke: #101817; stroke-width: 1.0;" x1="827.5" x2="1270.5" y1="878.5078" y2="878.5078"/><text fill="#000000" font-family="Helvetica" font-size="12" lengthAdjust="spacingAndGlyphs" textLength="198" x="953" y="873.6777">registrarConsumoDeUnaDosis()</text><line style="stroke: #101817; stroke-width: 1.0;" x1="1286.5" x2="1328.5" y1="920.4453" y2="920.4453"/><line style="stroke: #101817; stroke-width: 1.0;" x1="1328.5" x2="1328.5" y1="920.4453" y2="933.4453"/><line style="stroke: #101817; stroke-width: 1.0;" x1="1287.5" x2="1328.5" y1="933.4453" y2="933.4453"/><polygon fill="#101817" points="1297.5,929.4453,1287.5,933.4453,1297.5,937.4453,1293.5,933.4453" style="stroke: #101817; stroke-width: 1.0;"/><text fill="#000000" font-family="Helvetica" font-size="12" lengthAdjust="spacingAndGlyphs" textLength="159" x="1293.5" y="901.6465">stock = stock.descontar(</text><text fill="#000000" font-family="Helvetica" font-size="12" lengthAdjust="spacingAndGlyphs" textLength="231" x="1301.5" y="915.6152">dosis.unidadesConsumidasPorToma)</text><polygon fill="#101817" points="838.5,957.4141,828.5,961.4141,838.5,965.4141,834.5,961.4141" style="stroke: #101817; stroke-width: 1.0;"/><line style="stroke: #101817; stroke-width: 1.0; stroke-dasharray: 2.0,2.0;" x1="832.5" x2="1280.5" y1="961.4141" y2="961.4141"/><text fill="#000000" font-family="Helvetica" font-size="12" lengthAdjust="spacingAndGlyphs" textLength="15" x="1047" y="956.584">ok</text><polygon fill="#101817" points="1705.5,985.3828,1715.5,989.3828,1705.5,993.3828,1709.5,989.3828" style="stroke: #101817; stroke-width: 1.0;"/><line style="stroke: #101817; stroke-width: 1.0;" x1="827.5" x2="1711.5" y1="989.3828" y2="989.3828"/><text fill="#000000" font-family="Helvetica" font-size="12" lengthAdjust="spacingAndGlyphs" textLength="145" x="1200" y="984.5527">guardar(medicamento)</text><polygon fill="#101817" points="838.5,1013.3516,828.5,1017.3516,838.5,1021.3516,834.5,1017.3516" style="stroke: #101817; stroke-width: 1.0;"/><line style="stroke: #101817; stroke-width: 1.0; stroke-dasharray: 2.0,2.0;" x1="832.5" x2="1721.5" y1="1017.3516" y2="1017.3516"/><text fill="#000000" font-family="Helvetica" font-size="12" lengthAdjust="spacingAndGlyphs" textLength="15" x="1267.5" y="1012.5215">ok</text><path d="M414,1039.3516 L478,1039.3516 L478,1044.3516 L468,1054.3516 L414,1054.3516 L414,1039.3516 " fill="#EEEEEE" style="stroke: #A0530A; stroke-width: 1.0;"/><rect fill="none" height="143.8125" style="stroke: #A0530A; stroke-width: 2.0;" width="1507" x="414" y="1039.3516"/><text fill="#A0530A" font-family="Helvetica" font-size="12" font-weight="bold" lengthAdjust="spacingAndGlyphs" textLength="19" x="429" y="1051.4902">alt</text><text fill="#000000" font-family="Helvetica" font-size="12" font-weight="bold" lengthAdjust="spacingAndGlyphs" textLength="242" x="493" y="1052.4902">[stock.necesitaReabastecimiento]</text><polygon fill="#101817" points="1853,1071.2891,1863,1075.2891,1853,1079.2891,1857,1075.2891" style="stroke: #101817; stroke-width: 1.0;"/><line style="stroke: #101817; stroke-width: 1.0;" x1="827.5" x2="1859" y1="1075.2891" y2="1075.2891"/><text fill="#000000" font-family="Helvetica" font-size="12" lengthAdjust="spacingAndGlyphs" textLength="157" x="1267.75" y="1070.459">enviar(aviso STOCK_BAJO)</text><polygon fill="#101817" points="838.5,1099.2578,828.5,1103.2578,838.5,1107.2578,834.5,1103.2578" style="stroke: #101817; stroke-width: 1.0;"/><line style="stroke: #101817; stroke-width: 1.0; stroke-dasharray: 2.0,2.0;" x1="832.5" x2="1869" y1="1103.2578" y2="1103.2578"/><text fill="#000000" font-family="Helvetica" font-size="12" lengthAdjust="spacingAndGlyphs" textLength="15" x="1341.25" y="1098.4277">ok</text><polygon fill="#101817" points="485.5,1127.2266,475.5,1131.2266,485.5,1135.2266,481.5,1131.2266" style="stroke: #101817; stroke-width: 1.0;"/><line style="stroke: #101817; stroke-width: 1.0; stroke-dasharray: 2.0,2.0;" x1="479.5" x2="816.5" y1="1131.2266" y2="1131.2266"/><text fill="#000000" font-family="Helvetica" font-size="12" lengthAdjust="spacingAndGlyphs" textLength="319" x="486.5" y="1126.3965">{ toma, avisoDeStock: "Te quedan 3 unidades..." }</text><line style="stroke: #A0530A; stroke-width: 1.0; stroke-dasharray: 2.0,2.0;" x1="414" x2="1921" y1="1140.2266" y2="1140.2266"/><text fill="#000000" font-family="Helvetica" font-size="12" font-weight="bold" lengthAdjust="spacingAndGlyphs" textLength="156" x="419" y="1151.3652">[inventario suficiente]</text><polygon fill="#101817" points="485.5,1171.1641,475.5,1175.1641,485.5,1179.1641,481.5,1175.1641" style="stroke: #101817; stroke-width: 1.0;"/><line style="stroke: #101817; stroke-width: 1.0; stroke-dasharray: 2.0,2.0;" x1="479.5" x2="816.5" y1="1175.1641" y2="1175.1641"/><text fill="#000000" font-family="Helvetica" font-size="12" lengthAdjust="spacingAndGlyphs" textLength="178" x="557" y="1170.334">{ toma, avisoDeStock: null }</text><polygon fill="#101817" points="270.5,1206.1328,260.5,1210.1328,270.5,1214.1328,266.5,1210.1328" style="stroke: #101817; stroke-width: 1.0;"/><line style="stroke: #101817; stroke-width: 1.0; stroke-dasharray: 2.0,2.0;" x1="264.5" x2="468.5" y1="1210.1328" y2="1210.1328"/><text fill="#000000" font-family="Helvetica" font-size="12" lengthAdjust="spacingAndGlyphs" textLength="44" x="342.5" y="1205.3027">200 OK</text><line style="stroke: #101817; stroke-width: 1.0;" x1="259.5" x2="301.5" y1="1252.0703" y2="1252.0703"/><line style="stroke: #101817; stroke-width: 1.0;" x1="301.5" x2="301.5" y1="1252.0703" y2="1265.0703"/><line style="stroke: #101817; stroke-width: 1.0;" x1="260.5" x2="301.5" y1="1265.0703" y2="1265.0703"/><polygon fill="#101817" points="270.5,1261.0703,260.5,1265.0703,270.5,1269.0703,266.5,1265.0703" style="stroke: #101817; stroke-width: 1.0;"/><text fill="#000000" font-family="Helvetica" font-size="12" lengthAdjust="spacingAndGlyphs" textLength="106" x="266.5" y="1233.2715">recargar agenda</text><text fill="#000000" font-family="Helvetica" font-size="12" lengthAdjust="spacingAndGlyphs" textLength="182" x="266.5" y="1247.2402">resincronizar alarmas locales</text><polygon fill="#101817" points="49.5,1303.0078,39.5,1307.0078,49.5,1311.0078,45.5,1307.0078" style="stroke: #101817; stroke-width: 1.0;"/><line style="stroke: #101817; stroke-width: 1.0; stroke-dasharray: 2.0,2.0;" x1="43.5" x2="253.5" y1="1307.0078" y2="1307.0078"/><text fill="#000000" font-family="Helvetica" font-size="12" lengthAdjust="spacingAndGlyphs" textLength="165" x="64" y="1288.209">tarjeta en verde "Tomada"</text><text fill="#000000" font-family="Helvetica" font-size="12" lengthAdjust="spacingAndGlyphs" textLength="187" x="53" y="1302.1777">+ aviso de inventario si aplica</text><path d="M774,1320.0078 L774,1381.0078 L1329,1381.0078 L1329,1330.0078 L1319,1320.0078 L774,1320.0078 " fill="#FBF1E6" style="stroke: #A0530A; stroke-width: 1.0;"/><path d="M1319,1320.0078 L1319,1330.0078 L1329,1330.0078 L1319,1320.0078 " fill="#FBF1E6" style="stroke: #A0530A; stroke-width: 1.0;"/><text fill="#000000" font-family="Helvetica" font-size="11" font-weight="bold" lengthAdjust="spacingAndGlyphs" textLength="229" x="892.75" y="1335.2183">El caso de uso orquesta, no decide.</text><text fill="#000000" font-family="Helvetica" font-size="11" lengthAdjust="spacingAndGlyphs" textLength="302" x="892.75" y="1348.0229">Cuanto inventario consume una dosis lo sabe Dosis;</text><text fill="#000000" font-family="Helvetica" font-size="11" lengthAdjust="spacingAndGlyphs" textLength="304" x="892.75" y="1360.8276">si la toma admite confirmarse lo sabe Toma. El caso</text><text fill="#000000" font-family="Helvetica" font-size="11" lengthAdjust="spacingAndGlyphs" textLength="309" x="892.75" y="1373.6323">de uso solo encadena esas decisiones y las persiste.</text><!--MD5=[56c97e913b462334158446c5cdc9395e]
@startuml 05-secuencia-confirmar-toma

skinparam backgroundColor #FFFFFF
skinparam shadowing false
skinparam defaultFontName Helvetica
skinparam defaultFontSize 12
skinparam sequenceMessageAlign center

skinparam sequence {
  ArrowColor #101817
  LifeLineBorderColor #A9BAB7
  LifeLineBackgroundColor #EDF2F1
  ParticipantBorderColor #185A66
  ParticipantBackgroundColor #FFFFFF
  ParticipantFontColor #101817
  ActorBorderColor #185A66
  ActorBackgroundColor #FFFFFF
  BoxBorderColor #C2CFCC
  BoxFontColor #4E5C59
  GroupBorderColor #A0530A
  GroupHeaderFontColor #A0530A
}
skinparam note {
  BorderColor #A0530A
  BackgroundColor #FBF1E6
  FontSize 11
}

actor "Paciente" as PAC

box "Infraestructura (entrada)" #FBFCFC
  participant "App movil\n<size:10>hoy.tsx</size>" as APP
  participant "API HTTP\n<size:10>routes/tomas.ts</size>" as API
end box

box "Aplicacion" #FBFCFC
  participant "RegistrarToma\n<size:10>caso de uso</size>" as CU
  participant "PoliticaDeAcceso" as POL
end box

box "Dominio" #F5FAF9
  participant "Toma\n<size:10>entidad</size>" as TOMA
  participant "Medicamento\n<size:10>entidad</size>" as MED
end box

box "Infraestructura (salida)" #FBFCFC
  participant "RepositorioDeTomas\n<size:10>PostgreSQL</size>" as RTOM
  participant "RepositorioDeMedicamentos\n<size:10>PostgreSQL</size>" as RMED
  participant "Notificador" as NOT
end box

PAC -> APP : toca "Ya la tome"
activate APP

APP -> API : POST /api/tomas/{id}/registro\n{ accion: "CONFIRMAR" }
activate API

API -> API : verificar token (JWT)\nvalidar cuerpo (Zod)
note right of API
  El adaptador HTTP solo valida
  la FORMA de los datos. Las
  reglas de negocio no estan aqui.
end note

API -> CU : ejecutar({ solicitante, tomaId, accion })
activate CU

CU -> RTOM : buscarPorId(tomaId)
activate RTOM
RTOM - -> CU : Toma
deactivate RTOM

CU -> POL : asegurarAccesoAPaciente(\n  solicitante, pacienteId,\n  "puedeRegistrarTomas")
activate POL
alt sin vinculo o sin permiso
  POL - -> CU : ErrorDeAutorizacion
  CU - -> API : (excepcion)
  API - -> APP : 403 "No tienes permiso..."
end
POL - -> CU : autorizado
deactivate POL

CU -> TOMA : confirmar({ ahora, origen, registradaPorId })
activate TOMA
alt la toma ya estaba resuelta
  TOMA - -> CU : ErrorDeReglaDeNegocio
end
TOMA -> TOMA : estado = TOMADA\nresueltaEn = ahora
TOMA - -> CU : ok
deactivate TOMA

CU -> RTOM : guardar(toma)
activate RTOM
RTOM - -> CU : ok
deactivate RTOM

group Descuento de inventario
  CU -> RMED : buscarPorId(medicamentoId)
  activate RMED
  RMED - -> CU : Medicamento
  deactivate RMED

  CU -> MED : registrarConsumoDeUnaDosis()
  activate MED
  MED -> MED : stock = stock.descontar(\n  dosis.unidadesConsumidasPorToma)
  MED - -> CU : ok
  deactivate MED

  CU -> RMED : guardar(medicamento)
  activate RMED
  RMED - -> CU : ok
  deactivate RMED
end

alt stock.necesitaReabastecimiento
  CU -> NOT : enviar(aviso STOCK_BAJO)
  activate NOT
  NOT - -> CU : ok
  deactivate NOT
  CU - -> API : { toma, avisoDeStock: "Te quedan 3 unidades..." }
else inventario suficiente
  CU - -> API : { toma, avisoDeStock: null }
end
deactivate CU

API - -> APP : 200 OK
deactivate API

APP -> APP : recargar agenda\nresincronizar alarmas locales
APP - -> PAC : tarjeta en verde "Tomada"\n+ aviso de inventario si aplica
deactivate APP

note over CU, MED
  <b>El caso de uso orquesta, no decide.</b>
  Cuanto inventario consume una dosis lo sabe Dosis;
  si la toma admite confirmarse lo sabe Toma. El caso
  de uso solo encadena esas decisiones y las persiste.
end note

@enduml

PlantUML version 1.2020.02(Sun Mar 01 10:22:07 UTC 2020)
(GPL source distribution)
Java Runtime: OpenJDK Runtime Environment
JVM: OpenJDK 64-Bit Server VM
Java Version: 21.0.10+7-Ubuntu-124.04
Operating System: Linux
Default Encoding: UTF-8
Language: en
Country: US
--></g></svg>